<mxfile host="www.draw.io" modified="2019-11-17T03:56:24.602Z" agent="Mozilla/5.0 (Macintosh; Intel Mac OS X 10_12_6) AppleWebKit/537.36 (KHTML, like Gecko) Chrome/77.0.3865.90 Safari/537.36" etag="59OCS8uvyTpHRoOy6Ro2" version="12.2.6" type="github" pages="1">
  <diagram id="4olW-MAGGttCBygjSviU" name="Page-1">
    <mxGraphModel dx="886" dy="542" grid="1" gridSize="10" guides="1" tooltips="1" connect="1" arrows="1" fold="1" page="1" pageScale="1" pageWidth="827" pageHeight="1169" math="0" shadow="0">
      <root>
        <mxCell id="0"/>
        <mxCell id="1" parent="0"/>
        <mxCell id="XHvywjFio7YU5usjQC61-1" value="" style="endArrow=classic;html=1;" edge="1" parent="1">
          <mxGeometry width="50" height="50" relative="1" as="geometry">
            <mxPoint x="120" y="320" as="sourcePoint"/>
            <mxPoint x="680" y="320" as="targetPoint"/>
          </mxGeometry>
        </mxCell>
        <mxCell id="XHvywjFio7YU5usjQC61-3" value="" style="line;strokeWidth=1;direction=south;html=1;perimeter=backbonePerimeter;points=[];outlineConnect=0;rotation=180;" vertex="1" parent="1">
          <mxGeometry x="235" y="290" width="10" height="30" as="geometry"/>
        </mxCell>
        <mxCell id="XHvywjFio7YU5usjQC61-4" value="" style="shape=curlyBracket;whiteSpace=wrap;html=1;rounded=1;strokeWidth=1;rotation=90;strokeColor=#FF0080;" vertex="1" parent="1">
          <mxGeometry x="290" y="220" width="20" height="120" as="geometry"/>
        </mxCell>
        <mxCell id="XHvywjFio7YU5usjQC61-5" value="" style="line;strokeWidth=1;direction=south;html=1;perimeter=backbonePerimeter;points=[];outlineConnect=0;rotation=180;" vertex="1" parent="1">
          <mxGeometry x="355" y="290" width="10" height="30" as="geometry"/>
        </mxCell>
        <mxCell id="XHvywjFio7YU5usjQC61-6" value="" style="line;strokeWidth=1;direction=south;html=1;perimeter=backbonePerimeter;points=[];outlineConnect=0;rotation=180;" vertex="1" parent="1">
          <mxGeometry x="475" y="290" width="10" height="30" as="geometry"/>
        </mxCell>
        <mxCell id="XHvywjFio7YU5usjQC61-7" value="现在" style="text;strokeColor=none;fillColor=none;html=1;fontSize=16;fontStyle=0;verticalAlign=middle;align=center;" vertex="1" parent="1">
          <mxGeometry x="430" y="313" width="100" height="40" as="geometry"/>
        </mxCell>
        <mxCell id="XHvywjFio7YU5usjQC61-8" value="时间" style="text;strokeColor=none;fillColor=none;html=1;fontSize=16;fontStyle=0;verticalAlign=middle;align=center;" vertex="1" parent="1">
          <mxGeometry x="650" y="300" width="100" height="40" as="geometry"/>
        </mxCell>
        <mxCell id="XHvywjFio7YU5usjQC61-9" value="" style="endArrow=classic;html=1;" edge="1" parent="1">
          <mxGeometry width="50" height="50" relative="1" as="geometry">
            <mxPoint x="120" y="470" as="sourcePoint"/>
            <mxPoint x="680" y="470" as="targetPoint"/>
          </mxGeometry>
        </mxCell>
        <mxCell id="XHvywjFio7YU5usjQC61-13" value="" style="line;strokeWidth=1;direction=south;html=1;perimeter=backbonePerimeter;points=[];outlineConnect=0;rotation=180;" vertex="1" parent="1">
          <mxGeometry x="475" y="440" width="10" height="30" as="geometry"/>
        </mxCell>
        <mxCell id="XHvywjFio7YU5usjQC61-14" value="现在" style="text;strokeColor=none;fillColor=none;html=1;fontSize=16;fontStyle=0;verticalAlign=middle;align=center;" vertex="1" parent="1">
          <mxGeometry x="430" y="463" width="100" height="40" as="geometry"/>
        </mxCell>
        <mxCell id="XHvywjFio7YU5usjQC61-15" value="" style="shape=partialRectangle;whiteSpace=wrap;html=1;bottom=1;right=1;left=1;top=0;fillColor=none;routingCenterX=-0.5;strokeColor=#FF0080;strokeWidth=1;fontSize=16;rotation=180;" vertex="1" parent="1">
          <mxGeometry x="240" y="430" width="120" height="40" as="geometry"/>
        </mxCell>
        <mxCell id="XHvywjFio7YU5usjQC61-16" value="吃" style="text;strokeColor=none;fillColor=none;html=1;fontSize=16;fontStyle=0;verticalAlign=middle;align=center;" vertex="1" parent="1">
          <mxGeometry x="250" y="390" width="100" height="40" as="geometry"/>
        </mxCell>
        <mxCell id="XHvywjFio7YU5usjQC61-17" value="" style="endArrow=classic;html=1;" edge="1" parent="1">
          <mxGeometry width="50" height="50" relative="1" as="geometry">
            <mxPoint x="120" y="590" as="sourcePoint"/>
            <mxPoint x="680" y="590" as="targetPoint"/>
          </mxGeometry>
        </mxCell>
        <mxCell id="XHvywjFio7YU5usjQC61-18" value="" style="line;strokeWidth=1;direction=south;html=1;perimeter=backbonePerimeter;points=[];outlineConnect=0;rotation=180;" vertex="1" parent="1">
          <mxGeometry x="475" y="560" width="10" height="30" as="geometry"/>
        </mxCell>
        <mxCell id="XHvywjFio7YU5usjQC61-19" value="现在" style="text;strokeColor=none;fillColor=none;html=1;fontSize=16;fontStyle=0;verticalAlign=middle;align=center;" vertex="1" parent="1">
          <mxGeometry x="430" y="583" width="100" height="40" as="geometry"/>
        </mxCell>
        <mxCell id="XHvywjFio7YU5usjQC61-21" value="爱" style="text;strokeColor=none;fillColor=none;html=1;fontSize=16;fontStyle=0;verticalAlign=middle;align=center;" vertex="1" parent="1">
          <mxGeometry x="280" y="503" width="100" height="40" as="geometry"/>
        </mxCell>
        <mxCell id="XHvywjFio7YU5usjQC61-25" value="" style="edgeStyle=elbowEdgeStyle;elbow=horizontal;endArrow=classic;html=1;strokeColor=#FF0080;fontSize=16;fontColor=#000000;rounded=1;" edge="1" parent="1">
          <mxGeometry width="50" height="50" relative="1" as="geometry">
            <mxPoint x="120" y="590" as="sourcePoint"/>
            <mxPoint x="420" y="540" as="targetPoint"/>
          </mxGeometry>
        </mxCell>
        <mxCell id="XHvywjFio7YU5usjQC61-26" value="不爱" style="text;strokeColor=none;fillColor=none;html=1;fontSize=16;fontStyle=0;verticalAlign=middle;align=center;" vertex="1" parent="1">
          <mxGeometry x="135" y="549" width="100" height="41" as="geometry"/>
        </mxCell>
        <mxCell id="XHvywjFio7YU5usjQC61-27" value="没吃（饿）" style="text;strokeColor=none;fillColor=none;html=1;fontSize=16;fontStyle=0;verticalAlign=middle;align=center;" vertex="1" parent="1">
          <mxGeometry x="140" y="430" width="100" height="40" as="geometry"/>
        </mxCell>
        <mxCell id="XHvywjFio7YU5usjQC61-28" value="没吃（饱）" style="text;strokeColor=none;fillColor=none;html=1;fontSize=16;fontStyle=0;verticalAlign=middle;align=center;" vertex="1" parent="1">
          <mxGeometry x="365" y="430" width="100" height="40" as="geometry"/>
        </mxCell>
      </root>
    </mxGraphModel>
  </diagram>
</mxfile>
